<?xml version="1.0" encoding="UTF-8"?>
<svg id="Layer_1" data-name="Layer 1" xmlns="http://www.w3.org/2000/svg" viewBox="0 0 342.60085 212.6876">
  <defs>
    <style>
      .cls-1 {
        fill: #223029;
      }
    </style>
  </defs>
  <path class="cls-1" d="M331.5227,91.02174V15.05429c0-4.46034,2.01381-6.33082,6.76146-6.33082h4.02937v-4.46023l-7.43635-1.58322c-11.85273-2.52347-24.03281-3.33871-36.09073-2.12977-81.89247,8.21061-114.95792,63.35322-123.59987,94.10833-2.10841,7.50383-5.66477,7.50383-7.77318,0C158.77224,63.90347,125.70685,8.76084,43.81434.55025,31.75643-.65868,19.57638.15655,7.72366,2.68002L.28731,4.26323v4.46023h4.02937c4.74765,0,6.76234,1.87048,6.76234,6.33082v75.96746c0,5.3237-2.30287,7.77023-11.07902,8.92068v4.46078h22.58288c97.26641,0,135.3939,67.53457,144.81475,102.45039,2.09878,7.77866,5.70594,7.77866,7.80472.00011,9.42085-34.91593,47.54922-102.4505,144.81563-102.4505h22.58288v-4.46078c-8.77615-1.15045-11.07814-3.59698-11.07814-8.92068Z"/>
</svg>